HIERARCHY
ROOT Hips
{
	OFFSET 0.00000 0.00000 0.00000
	CHANNELS 6 Xposition Yposition Zposition Zrotation Yrotation Xrotation 
	JOINT LHipJoint
	{
		OFFSET 0 0 0
		CHANNELS 3 Zrotation Yrotation Xrotation
		JOINT LeftUpLeg
		{
			OFFSET 1.29432 -1.88279 0.59910
			CHANNELS 3 Zrotation Yrotation Xrotation
			JOINT LeftLeg
			{
				OFFSET 2.63039 -7.22694 0.00000
				CHANNELS 3 Zrotation Yrotation Xrotation
				JOINT LeftFoot
				{
					OFFSET 2.70674 -7.43672 0.00000
					CHANNELS 3 Zrotation Yrotation Xrotation
					JOINT LeftToeBase
					{
						OFFSET 0.15066 -0.41394 2.09027
						CHANNELS 3 Zrotation Yrotation Xrotation
						End Site
						{
							OFFSET 0.00000 -0.00000 1.07518
						}
					}
				}
			}
		}
	}
	JOINT RHipJoint
	{
		OFFSET 0 0 0
		CHANNELS 3 Zrotation Yrotation Xrotation
		JOINT RightUpLeg
		{
			OFFSET -1.37068 -1.88279 0.59910
			CHANNELS 3 Zrotation Yrotation Xrotation
			JOINT RightLeg
			{
				OFFSET -2.57023 -7.06166 0.00000
				CHANNELS 3 Zrotation Yrotation Xrotation
				JOINT RightFoot
				{
					OFFSET -2.76461 -7.59570 0.00000
					CHANNELS 3 Zrotation Yrotation Xrotation
					JOINT RightToeBase
					{
						OFFSET -0.24175 -0.64785 2.19719
						CHANNELS 3 Zrotation Yrotation Xrotation
						End Site
						{
							OFFSET -0.00000 -0.00000 1.14803
						}
					}
				}
			}
		}
	}
	JOINT LowerBack
	{
		OFFSET 0 0 0
		CHANNELS 3 Zrotation Yrotation Xrotation
		JOINT Spine
		{
			OFFSET -0.03138 2.03983 -0.23106
			CHANNELS 3 Zrotation Yrotation Xrotation
			JOINT Spine1
			{
				OFFSET -0.00325 2.06238 -0.06878
				CHANNELS 3 Zrotation Yrotation Xrotation
				JOINT Neck
				{
					OFFSET 0 0 0
					CHANNELS 3 Zrotation Yrotation Xrotation
					JOINT Neck1
					{
						OFFSET -0.00002 1.75318 0.18090
						CHANNELS 3 Zrotation Yrotation Xrotation
						JOINT Head
						{
							OFFSET 0.08806 1.75856 -0.25387
							CHANNELS 3 Zrotation Yrotation Xrotation
							End Site
							{
								OFFSET 0.02554 1.78597 -0.10684
							}
						}
					}
				}
				JOINT LeftShoulder
				{
					OFFSET 0 0 0
					CHANNELS 3 Zrotation Yrotation Xrotation
					JOINT LeftArm
					{
						OFFSET 3.09657 1.33597 -0.04414
						CHANNELS 3 Zrotation Yrotation Xrotation
						JOINT LeftForeArm
						{
							OFFSET 5.34298 -0.00000 -0.00000
							CHANNELS 3 Zrotation Yrotation Xrotation
							JOINT LeftHand
							{
								OFFSET 3.67262 -0.00000 -0.00000
								CHANNELS 3 Zrotation Yrotation Xrotation
								JOINT LeftFingerBase
								{
									OFFSET 0 0 0
									CHANNELS 3 Zrotation Yrotation Xrotation
									JOINT LeftHandIndex1
									{
										OFFSET 0.59930 -0.00000 -0.00000
										CHANNELS 3 Zrotation Yrotation Xrotation
										End Site
										{
											OFFSET 0.48317 -0.00000 -0.00000
										}
									}
								}
								JOINT LThumb
								{
									OFFSET 0 0 0
									CHANNELS 3 Zrotation Yrotation Xrotation
									End Site
									{
										OFFSET 0.49055 -0.00000 0.49055
									}
								}
							}
						}
					}
				}
				JOINT RightShoulder
				{
					OFFSET 0 0 0
					CHANNELS 3 Zrotation Yrotation Xrotation
					JOINT RightArm
					{
						OFFSET -3.16460 1.32273 -0.23382
						CHANNELS 3 Zrotation Yrotation Xrotation
						JOINT RightForeArm
						{
							OFFSET -5.54967 -0.01834 0.03348
							CHANNELS 3 Zrotation Yrotation Xrotation
							JOINT RightHand
							{
								OFFSET -3.69401 -0.00000 0.00000
								CHANNELS 3 Zrotation Yrotation Xrotation
								JOINT RightFingerBase
								{
									OFFSET 0 0 0
									CHANNELS 3 Zrotation Yrotation Xrotation
									JOINT RightHandIndex1
									{
										OFFSET -0.63811 -0.00000 0.00000
										CHANNELS 3 Zrotation Yrotation Xrotation
										End Site
										{
											OFFSET -0.51446 -0.00000 0.00000
										}
									}
								}
								JOINT RThumb
								{
									OFFSET 0 0 0
									CHANNELS 3 Zrotation Yrotation Xrotation
									End Site
									{
										OFFSET -0.52232 -0.00000 0.52232
									}
								}
							}
						}
					}
				}
			}
		}
	}
}
MOTION
Frames: 14
Frame Time: .0083333
12.0756 16.6588 8.3563 116.2430 -83.6780 -123.4660 0.0000 0.0000 0.0000 -0.5595 -17.1533 5.6143 4.2632 12.5026 37.5341 -0.3231 -14.1338 -5.4844 1.8683 -8.5862 -24.5093 0.0000 0.0000 0.0000 -7.8943 27.8688 2.2374 -4.9062 -13.2774 40.4159 -0.5221 2.0236 -13.1021 -5.6946 14.1257 -43.7435 -3.7323 -1.6283 7.0785 -1.7338 -2.6045 -0.8477 0.5817 -1.2235 -4.7699 2.8182 2.7716 -8.2627 -1.5857 3.4532 15.9936 -0.7051 1.6426 6.2911 0.0000 0.0000 0.0000 40.2409 -12.7233 -54.9341 38.4291 -47.1112 -17.2793 -0.0000 0.0000 -4.8545 27.2296 36.7578 17.1159 -7.1250 0.0000 -0.0000 -10.0343 69.7747 -5.9674 0.0000 0.0000 0.0000 -40.9664 17.0301 -69.7672 -29.6537 40.5947 -11.1836 0.0000 0.0000 0.0436 -41.0906 17.9098 -15.0122 7.1250 -0.0000 -0.0000 -8.3241 -6.9724 -7.3318
12.0865 16.9062 8.3578 116.1320 -83.7440 -122.8040 0.0000 0.0000 0.0000 -0.9227 -17.5602 5.8120 3.9027 12.0298 35.8376 -0.3075 -11.9503 -2.9664 1.5381 -7.8292 -22.1964 0.0000 0.0000 0.0000 -7.5459 28.0282 2.7628 -4.4129 -12.6904 38.2205 -0.2977 0.7058 -10.0812 -5.6208 14.0505 -43.4401 -3.5289 -1.4859 6.6534 -1.6690 -2.3733 -0.9396 0.4988 -1.1143 -4.6383 2.4019 2.6367 -8.2347 -1.3848 3.3020 15.7881 -0.5861 1.5634 6.2065 0.0000 -0.0000 0.0000 37.8434 -12.0743 -53.0580 38.3228 -47.0442 -17.2015 -0.0000 0.0000 -5.0656 27.6196 36.9174 17.4469 -7.1250 0.0000 -0.0000 -9.6645 70.0575 -5.8070 0.0000 -0.0000 0.0000 -38.6686 15.7406 -67.1864 -28.9588 39.9840 -10.7342 0.0000 -0.0000 -0.2987 -41.5137 18.3736 -15.5896 7.1250 -0.0000 -0.0000 -8.4925 -6.2784 -7.5988
12.0992 17.1589 8.3637 116.5420 -83.6919 -122.4610 0.0000 0.0000 0.0000 -1.3530 -17.9887 5.7204 3.5753 11.5727 34.2365 -0.2144 -8.9803 -0.6691 1.2356 -7.0491 -19.8609 0.0000 0.0000 0.0000 -7.5595 28.0362 2.7668 -3.9538 -12.0987 36.0821 -0.1296 -0.4054 -6.9592 -5.1732 13.5762 -41.5658 -3.4265 -1.4350 5.9756 -1.6201 -2.2634 -1.0433 0.4624 -1.0651 -4.3682 2.6174 2.6710 -8.4222 -1.8245 3.3885 15.8085 -0.7514 1.5839 6.2587 -0.0000 -0.0000 0.0000 35.4609 -11.0663 -51.1281 38.0056 -46.8429 -16.9697 -0.0000 0.0000 -5.0295 27.6375 37.0619 17.5144 -7.1250 0.0000 -0.0000 -9.7952 70.2055 -5.9184 -0.0000 -0.0000 0.0000 -36.3154 14.6262 -64.6921 -28.4213 39.5012 -10.3906 0.0000 -0.0000 -0.9522 -42.6116 18.8184 -16.5277 7.1250 -0.0000 -0.0000 -9.0724 -5.3954 -8.2861
12.1173 17.4168 8.3671 117.4500 -83.9936 -122.5990 0.0000 0.0000 0.0000 -1.3238 -18.2799 5.3583 3.2671 11.1153 32.6698 -0.1213 -6.2039 1.5122 1.2751 -7.1567 -20.1804 0.0000 0.0000 0.0000 -7.1243 28.0808 2.7936 -3.5355 -11.5151 34.0376 -0.0222 -1.7641 -4.0209 -4.4143 12.6922 -38.2269 -2.9322 -1.4850 5.3959 -1.6049 -2.2707 -1.2166 0.1882 -1.0813 -4.2379 2.8704 2.7753 -8.6352 -2.0017 3.5171 16.1058 -0.8352 1.6432 6.4012 -0.0000 -0.0000 0.0000 33.2119 -10.0804 -48.8237 37.7160 -46.6570 -16.7588 -0.0000 0.0000 -4.9609 27.4901 37.3751 17.5296 -7.1250 0.0000 -0.0000 -10.3479 70.4651 -6.3144 -0.0000 -0.0000 0.0000 -33.5800 13.7019 -62.1853 -28.0473 39.1597 -10.1535 0.0000 -0.0000 -1.4320 -44.1419 19.3577 -17.8320 7.1250 -0.0000 -0.0000 -9.8805 -4.2242 -9.2674
12.1412 17.6698 8.3627 118.8980 -84.2591 -123.4120 0.0000 0.0000 0.0000 -1.3103 -18.3826 5.0383 2.9761 10.6563 31.1294 -0.0223 -3.6606 4.0248 1.3188 -7.2735 -20.5284 0.0000 0.0000 0.0000 -6.5497 28.3432 2.9220 -3.1592 -10.9483 32.1059 0.0427 -3.6687 -1.1180 -3.6732 11.7123 -34.7217 -2.3531 -1.4218 5.0547 -1.7037 -2.1412 -1.3321 -0.2565 -1.0333 -4.1920 2.7886 2.7867 -9.4553 -1.6602 3.4687 16.9103 -0.7035 1.6325 6.7933 0.0000 0.0000 0.0000 31.1686 -9.2793 -46.5483 37.2127 -46.3290 -16.3937 -0.0000 0.0000 -5.0387 27.5604 36.8407 17.3766 -7.1250 0.0000 -0.0000 -9.6650 69.9628 -5.7869 0.0000 0.0000 0.0000 -30.4941 12.5761 -59.7392 -27.7997 38.9312 -9.9976 0.0000 -0.0000 -1.2727 -45.2327 19.8921 -18.9332 7.1250 -0.0000 -0.0000 -10.4102 -3.1695 -9.9875
12.1610 17.9181 8.3508 120.3310 -84.1993 -124.2750 0.0000 0.0000 0.0000 -1.6750 -18.4164 4.8445 2.7061 10.2034 29.6379 0.1152 -0.7555 6.7337 1.3446 -7.3413 -20.7305 0.0000 0.0000 0.0000 -6.2345 28.7230 2.9505 -2.8315 -10.4171 30.3383 0.0583 -5.7969 2.0522 -3.2158 11.0365 -32.4030 -2.2444 -1.2591 4.6747 -1.6603 -1.9001 -1.3092 -0.3023 -0.9179 -3.9577 2.4497 2.7712 -10.0618 -1.4663 3.4655 17.0570 -0.5768 1.6253 6.9371 0.0000 -0.0000 0.0000 28.7464 -8.1761 -44.3760 36.7518 -46.0233 -16.0612 -0.0000 0.0000 -5.2979 27.5178 36.2873 17.1357 -7.1250 0.0000 -0.0000 -9.1527 69.4018 -5.3635 0.0000 -0.0000 0.0000 -27.8285 11.3814 -57.6764 -27.4607 38.6150 -9.7853 0.0000 -0.0000 -0.9081 -45.6805 20.0565 -19.3508 7.1250 -0.0000 -0.0000 -10.6370 -2.7981 -10.2863
12.1764 18.1628 8.3441 124.1430 -84.2768 -127.3900 0.0000 0.0000 0.0000 -1.7616 -18.3997 4.5029 2.4625 9.7693 28.2329 0.2770 2.3579 9.4049 1.3848 -7.4459 -21.0434 0.0000 0.0000 0.0000 -5.7448 28.9744 2.6006 -2.5619 -9.9495 28.8135 0.0065 -7.3153 4.9754 -2.9362 10.5911 -30.9129 -2.0031 -1.1252 4.0522 -1.3592 -1.6691 -1.2477 -0.1593 -0.8071 -3.5416 2.0482 2.8081 -10.3366 -1.6034 3.6172 16.6702 -0.5384 1.6676 6.8583 0.0000 0.0000 0.0000 25.8458 -6.6448 -42.0835 36.6283 -45.9404 -15.9723 -0.0000 0.0000 -5.7626 26.8231 36.3736 16.6924 -7.1250 0.0000 -0.0000 -10.1881 69.2670 -5.9437 0.0000 0.0000 0.0000 -25.6730 10.3330 -56.0113 -26.8388 38.0251 -9.3997 0.0000 -0.0000 -0.8528 -46.0970 20.6175 -20.0963 7.1250 -0.0000 -0.0000 -10.7496 -1.9304 -10.5710
12.2018 18.3906 8.3410 130.0350 -84.3296 -132.5190 0.0000 0.0000 0.0000 -1.7276 -18.4516 4.0832 2.2662 9.3998 27.0540 0.3939 5.4261 11.2341 1.0252 -6.4410 -18.0696 0.0000 0.0000 0.0000 -5.1969 29.2688 1.9683 -2.3556 -9.5705 27.5969 -0.0454 -8.2432 6.6545 -2.5714 9.9667 -28.8689 -1.5154 -0.9901 3.4695 -1.1708 -1.4375 -1.2042 -0.2659 -0.7017 -3.1768 1.9564 2.8560 -10.9955 -1.8366 3.7417 16.6975 -0.5771 1.7011 6.9880 0.0000 0.0000 0.0000 23.1825 -4.9925 -39.7564 36.4574 -45.8252 -15.8497 -0.0000 0.0000 -6.2841 26.0666 36.1732 16.1047 -7.1250 0.0000 -0.0000 -10.9979 68.8320 -6.3126 0.0000 0.0000 0.0000 -23.4332 9.3675 -54.6871 -26.1648 37.3709 -8.9875 0.0000 -0.0000 -0.7728 -46.6382 21.8352 -21.4964 7.1250 -0.0000 -0.0000 -10.7697 -0.1791 -10.9311
12.2335 18.5984 8.3330 134.7030 -84.2286 -136.4780 0.0000 0.0000 0.0000 -1.8466 -18.4652 3.5465 2.1406 9.1530 26.2751 0.4279 7.6359 12.0359 0.4101 -4.1109 -11.3890 0.0000 0.0000 0.0000 -4.7377 29.4592 1.2402 -2.2131 -9.2965 26.7272 -0.0745 -8.1367 7.1195 -2.5469 9.9227 -28.7269 -1.1334 -0.7340 3.0766 -1.1290 -1.0667 -1.1488 -0.4653 -0.5249 -2.9061 2.0260 2.7552 -11.9328 -2.1472 3.6466 16.9628 -0.6843 1.6268 7.2446 0.0000 -0.0000 0.0000 20.8253 -3.7035 -37.4767 36.1915 -45.6444 -15.6592 -0.0000 0.0000 -6.7365 25.9858 36.8101 16.2804 -7.1250 0.0000 -0.0000 -11.7802 69.4289 -6.9238 0.0000 -0.0000 0.0000 -20.9692 8.1228 -53.5207 -25.5858 36.7967 -8.6384 0.0000 -0.0000 -0.5161 -46.7575 22.4310 -22.0838 7.1250 -0.0000 -0.0000 -10.6911 0.6182 -10.9983
12.2687 18.7914 8.3325 136.0830 -84.1045 -137.1930 0.0000 0.0000 0.0000 -2.2326 -18.4980 2.7939 2.0753 9.0212 25.8618 0.4231 8.3724 12.1570 0.0845 -1.8753 -5.1610 0.0000 0.0000 0.0000 -4.5532 29.1968 0.3035 -2.1391 -9.1500 26.2656 -0.0843 -6.5372 6.4808 -2.8652 10.4736 -30.5244 -1.0390 -0.6584 2.8033 -1.0604 -0.9548 -1.1741 -0.4571 -0.4705 -2.7784 2.2118 2.8145 -12.3151 -2.6985 3.7935 16.7902 -0.8745 1.6604 7.2740 0.0000 0.0000 0.0000 18.3877 -2.2031 -34.9334 35.7569 -45.3451 -15.3493 -0.0000 0.0000 -7.0763 26.0473 37.5940 16.6030 -7.1250 0.0000 -0.0000 -12.5900 70.2080 -7.6237 0.0000 0.0000 0.0000 -18.5832 7.3112 -52.4120 -25.0327 36.2374 -8.3093 0.0000 0.0000 0.0357 -46.2950 22.2245 -21.5904 7.1250 -0.0000 -0.0000 -10.4762 0.1713 -10.6875
12.3081 18.9677 8.3376 136.5080 -83.9529 -137.0060 0.0000 0.0000 0.0000 -2.8063 -18.6360 2.0095 2.0490 8.9675 25.6937 0.3576 8.2605 11.3271 0.0809 -1.8350 -5.0500 0.0000 0.0000 0.0000 -4.5085 28.8310 -0.7851 -2.1279 -9.1276 26.1954 -0.0723 -4.5053 5.3454 -2.8052 10.3728 -30.1924 -1.0520 -0.7789 2.5590 -1.0088 -1.1107 -1.2055 -0.3922 -0.5479 -2.6721 2.6322 3.2002 -12.4226 -3.2616 4.3401 16.3359 -1.0703 1.9049 7.1823 -0.0000 -0.0000 0.0000 15.9189 -0.4429 -32.6175 34.9544 -44.7795 -14.7812 -0.0000 0.0000 -6.9497 25.2292 36.9185 15.8032 -7.1250 0.0000 -0.0000 -12.9076 69.2939 -7.5550 -0.0000 -0.0000 0.0000 -16.2869 6.8877 -50.9864 -24.3669 35.5499 -7.9189 0.0000 0.0000 0.1874 -45.8690 22.1524 -21.2405 7.1250 -0.0000 -0.0000 -10.2478 -0.0886 -10.3997
12.3488 19.1249 8.3331 137.7380 -83.6778 -137.7510 0.0000 0.0000 0.0000 -3.4171 -18.5974 1.2663 2.0565 8.9828 25.7416 0.2705 7.7127 10.0070 0.0897 -1.9312 -5.3155 0.0000 0.0000 0.0000 -4.4105 28.4275 -1.9515 -2.1594 -9.1905 26.3930 -0.0558 -2.8756 4.3646 -2.2132 9.2967 -26.7279 -1.1889 -0.7293 2.4036 -0.9646 -1.0434 -1.1078 -0.2762 -0.5124 -2.4809 2.8961 3.4779 -12.8448 -3.6710 4.7361 16.0251 -1.2000 2.0768 7.1850 0.0000 0.0000 0.0000 13.4929 1.1054 -30.6869 34.2385 -44.2607 -14.2793 -0.0000 0.0000 -6.9354 23.7880 35.9351 14.5040 -7.1250 0.0000 -0.0000 -13.7103 67.8972 -7.5998 0.0000 0.0000 0.0000 -13.8615 5.8717 -48.9407 -23.7257 34.8729 -7.5492 0.0000 -0.0000 -0.9261 -46.4694 22.3871 -21.8466 7.1250 -0.0000 -0.0000 -10.5364 0.4453 -10.8017
12.3878 19.2729 8.3239 137.4450 -83.3800 -137.0170 0.0000 0.0000 0.0000 -4.1343 -18.2898 0.2968 2.0899 9.0509 25.9547 0.2353 6.5111 9.1283 0.0140 -0.7648 -2.1018 0.0000 0.0000 0.0000 -4.3312 27.8256 -3.1566 -2.2244 -9.3186 26.7971 -0.0420 -1.1968 3.6382 -1.9991 8.8641 -25.3712 -1.5167 -0.5656 2.3718 -0.9073 -0.8328 -1.0375 -0.0441 -0.4022 -2.3861 2.7993 3.4638 -13.2699 -3.9484 4.7781 15.7281 -1.2638 2.0676 7.1693 0.0000 0.0000 0.0000 11.0727 2.4968 -28.5600 33.7394 -43.8907 -13.9321 -0.0000 0.0000 -7.4060 22.6100 35.0994 13.4668 -7.1250 0.0000 -0.0000 -14.3355 66.7390 -7.5743 0.0000 0.0000 0.0000 -11.4302 4.6708 -47.3223 -23.3204 34.4373 -7.3187 0.0000 -0.0000 -1.6045 -47.0518 22.4425 -22.2998 7.1250 -0.0000 -0.0000 -10.8569 0.7546 -11.2010
12.4236 19.4170 8.3192 137.9910 -83.4252 -137.0980 0.0000 0.0000 0.0000 -4.5392 -17.9307 -0.8523 2.1392 9.1501 26.2661 0.2230 5.2422 8.6209 0.0003 0.1043 0.2865 0.0000 0.0000 0.0000 -3.7514 27.2795 -4.2162 -2.3200 -9.5031 27.3820 -0.0233 0.2480 2.9872 -2.1926 9.2562 -26.6000 -1.2748 -0.4574 2.3118 -0.8861 -0.6766 -0.9598 -0.1656 -0.3282 -2.2764 2.6520 3.4141 -13.5327 -4.0115 4.7378 15.0897 -1.2615 2.0438 7.0048 0.0000 0.0000 0.0000 8.6008 3.7058 -26.5491 33.3533 -43.5999 -13.6651 -0.0000 0.0000 -7.6929 22.2813 33.7759 12.8329 -7.1250 0.0000 -0.0000 -13.5036 65.3624 -6.7006 0.0000 0.0000 0.0000 -8.9249 3.8561 -46.7838 -22.9297 34.0118 -7.0989 0.0000 -0.0000 -1.0348 -46.7403 22.5977 -22.2121 7.1250 -0.0000 -0.0000 -10.6396 0.8199 -10.9808
